<svg xmlns="http://www.w3.org/2000/svg" version="1.1" xmlns:xlink="http://www.w3.org/1999/xlink" xmlns:svgjs="http://svgjs.dev/svgjs" width="1500" height="276" viewBox="0 0 1500 276"><g transform="matrix(1,0,0,1,-0.9082377557208474,-0.8041798230215988)"><svg viewBox="0 0 396 73" data-background-color="#dedede" preserveAspectRatio="xMidYMid meet" height="276" width="1500" xmlns="http://www.w3.org/2000/svg" xmlns:xlink="http://www.w3.org/1999/xlink"><g id="tight-bounds" transform="matrix(1,0,0,1,0.2397747675103119,0.2126997357991911)"><svg viewBox="0 0 395.52 72.5742752174227" height="72.5742752174227" width="395.52"><g><svg viewBox="0 0 421.45251833704634 77.3326533598015" height="72.5742752174227" width="395.52"><g transform="matrix(1,0,0,1,65.33199833704634,0)"><svg viewBox="0 0 356.12052 77.3326533598015" height="77.3326533598015" width="356.12052"><g><path d="M0 77.333v-77.333h356.121v77.333z" fill="#797979" stroke="transparent" stroke-width="0" rx="0%" data-fill-palette-color="tertiary"></path><path d="M3.283 74.049v-70.766h349.554v70.766z" fill="#ffffff" stroke="transparent" stroke-width="0" rx="0%" data-fill-palette-color="quaternary"></path><path d="M9.85 67.483v-57.633h336.421v57.633z" fill="#797979" stroke="transparent" stroke-width="0" data-fill-palette-color="tertiary"></path></g><g transform="matrix(1,0,0,1,19.69974,19.699740000000002)" id="textblocktransform"><svg viewBox="0 0 316.72104 37.93317335980149" height="37.93317335980149" width="316.72104" id="textblock"><g><svg viewBox="0 0 316.72104 37.93317335980149" height="37.93317335980149" width="316.72104"><g transform="matrix(1,0,0,1,0,0)"><svg width="316.72104" viewBox="4.5 -35.6 302.23 36.2" height="37.93317335980149" data-palette-color="#ffffff"><path d="M13.7 0.4L13.7 0.4Q10.85 0.4 8.72 0.25 6.6 0.1 4.5-0.1L4.5-0.1 4.5-34.9Q6.85-35.15 9.1-35.27 11.35-35.4 14.25-35.4L14.25-35.4Q18.75-35.4 22.03-34 25.3-32.6 27.43-30.15 29.55-27.7 30.58-24.48 31.6-21.25 31.6-17.55L31.6-17.55Q31.6-13.9 30.55-10.65 29.5-7.4 27.33-4.93 25.15-2.45 21.78-1.03 18.4 0.4 13.7 0.4ZM13.85-3.75L13.85-3.75Q18.35-3.75 21.2-5.5 24.05-7.25 25.4-10.38 26.75-13.5 26.75-17.55L26.75-17.55Q26.75-21.15 25.4-24.3 24.05-27.45 21.25-29.38 18.45-31.3 14.1-31.3L14.1-31.3Q12.65-31.3 11.45-31.23 10.25-31.15 9.25-31.05L9.25-31.05 9.25-4Q10.3-3.85 11.45-3.8 12.6-3.75 13.85-3.75ZM50.8 0.6L50.8 0.6Q44.75 0.6 41.3-3 37.85-6.6 37.85-13.3L37.85-13.3 37.85-35 42.6-35 42.6-14.05Q42.6-9.05 44.65-6.3 46.7-3.55 50.8-3.55L50.8-3.55Q55.05-3.55 57.15-6.23 59.25-8.9 59.25-14.05L59.25-14.05 59.25-35 63.85-35 63.85-13.5Q63.85-9.1 62.22-5.93 60.6-2.75 57.67-1.07 54.75 0.6 50.8 0.6ZM81.3 0.4L81.3 0.4Q78.44 0.4 76.32 0.25 74.19 0.1 72.09-0.1L72.09-0.1 72.09-34.9Q74.44-35.15 76.69-35.27 78.94-35.4 81.84-35.4L81.84-35.4Q86.34-35.4 89.62-34 92.89-32.6 95.02-30.15 97.14-27.7 98.17-24.48 99.19-21.25 99.19-17.55L99.19-17.55Q99.19-13.9 98.14-10.65 97.09-7.4 94.92-4.93 92.75-2.45 89.37-1.03 86 0.4 81.3 0.4ZM81.44-3.75L81.44-3.75Q85.94-3.75 88.8-5.5 91.64-7.25 93-10.38 94.34-13.5 94.34-17.55L94.34-17.55Q94.34-21.15 93-24.3 91.64-27.45 88.84-29.38 86.05-31.3 81.69-31.3L81.69-31.3Q80.25-31.3 79.05-31.23 77.84-31.15 76.84-31.05L76.84-31.05 76.84-4Q77.89-3.85 79.05-3.8 80.19-3.75 81.44-3.75ZM127.19 0L106.19 0 106.19-35 127.19-35 127.19-30.9 110.94-30.9 110.94-20.25 124.94-20.25 124.94-16.25 110.94-16.25 110.94-4.1 127.19-4.1 127.19 0ZM142.64 0.6L142.64 0.6Q138.99 0.6 135.99-0.38 132.99-1.35 130.94-2.95L130.94-2.95 133.34-6.95Q135.14-5.45 137.39-4.5 139.64-3.55 142.64-3.55L142.64-3.55Q146.24-3.55 148.34-5.05 150.44-6.55 150.44-9.1L150.44-9.1Q150.44-10.55 149.84-11.68 149.24-12.8 147.51-13.88 145.79-14.95 142.44-16.2L142.44-16.2Q138.84-17.6 136.69-19.03 134.54-20.45 133.62-22.28 132.69-24.1 132.69-26.6L132.69-26.6Q132.69-29.1 134.06-31.13 135.44-33.15 138.12-34.38 140.79-35.6 144.59-35.6L144.59-35.6Q147.69-35.6 150.16-34.98 152.64-34.35 154.99-33.2L154.99-33.2 153.24-29.15Q151.54-30.15 149.26-30.83 146.99-31.5 144.49-31.5L144.49-31.5Q141.19-31.5 139.29-30.2 137.39-28.9 137.39-26.85L137.39-26.85Q137.39-25.55 137.94-24.55 138.49-23.55 140.12-22.6 141.74-21.65 144.99-20.45L144.99-20.45Q148.89-19 151.16-17.4 153.44-15.8 154.39-13.93 155.34-12.05 155.34-9.65L155.34-9.65Q155.34-6.4 153.72-4.1 152.09-1.8 149.22-0.6 146.34 0.6 142.64 0.6ZM167.09 0L162.34 0 162.34-34.9Q164.39-35.15 166.86-35.27 169.34-35.4 171.99-35.4L171.99-35.4Q176.34-35.4 179.39-34.02 182.44-32.65 184.04-30.25 185.64-27.85 185.64-24.75L185.64-24.75Q185.64-21 183.79-18.4 181.94-15.8 178.64-14.43 175.34-13.05 170.99-13.05L170.99-13.05Q168.89-13.05 167.09-13.2L167.09-13.2 167.09 0ZM171.59-17L171.59-17Q176.04-17 178.49-19 180.94-21 180.94-24.35L180.94-24.35Q180.94-27.6 178.59-29.5 176.24-31.4 171.89-31.4L171.89-31.4Q170.54-31.4 169.34-31.35 168.14-31.3 167.09-31.2L167.09-31.2 167.09-17.25Q167.89-17.15 169.04-17.07 170.19-17 171.59-17ZM196.14 0L191.39 0 191.39-35 196.14-35 196.14-20.05 213.39-20.05 213.39-35 218.14-35 218.14 0 213.39 0 213.39-15.95 196.14-15.95 196.14 0ZM248.13 0L227.13 0 227.13-35 248.13-35 248.13-30.9 231.88-30.9 231.88-20.25 245.88-20.25 245.88-16.25 231.88-16.25 231.88-4.1 248.13-4.1 248.13 0ZM279.73-1.5L275.28 0.6 270.93-8.9Q269.28-12.45 266.78-13.95 264.28-15.45 260.38-15.45L260.38-15.45 259.63-15.45 259.63 0 254.88 0 254.88-34.9Q257.53-35.15 259.96-35.27 262.38-35.4 265.13-35.4L265.13-35.4Q271.53-35.4 274.75-32.8 277.98-30.2 277.98-26.1L277.98-26.1Q277.98-22.45 275.81-20.23 273.63-18 269.53-16.9L269.53-16.9Q270.88-16.3 271.93-15.48 272.98-14.65 273.96-13.28 274.93-11.9 275.93-9.7L275.93-9.7 279.73-1.5ZM259.63-31.2L259.63-19.45 265.13-19.45Q268.73-19.45 270.98-21.05 273.23-22.65 273.23-25.65L273.23-25.65Q273.23-28.15 271.13-29.78 269.03-31.4 265.13-31.4L265.13-31.4Q263.43-31.4 262.08-31.35 260.73-31.3 259.63-31.2L259.63-31.2ZM306.73 0L285.73 0 285.73-35 306.73-35 306.73-30.9 290.48-30.9 290.48-20.25 304.48-20.25 304.48-16.25 290.48-16.25 290.48-4.1 306.73-4.1 306.73 0Z" opacity="1" transform="matrix(1,0,0,1,0,0)" fill="#ffffff" class="wordmark-text-0" data-fill-palette-color="quaternary" id="text-0"></path></svg></g></svg></g></svg></g></svg></g><g transform="matrix(1,0,0,1,0,3.5424841391261523)"><svg viewBox="0 0 58.76541833704635 70.24768508154919" height="70.24768508154919" width="58.76541833704635"><g><svg xmlns="http://www.w3.org/2000/svg" xmlns:xlink="http://www.w3.org/1999/xlink" version="1.1" x="0" y="0" viewBox="8.409 0.7409999999999997 82.41400000000002 98.51700000000002" enable-background="new 0 0 100 100" xml:space="preserve" height="70.24768508154919" width="58.76541833704635" class="icon-icon-0" data-fill-palette-color="accent" id="icon-0"><g fill="#797979" data-fill-palette-color="accent"><path d="M8.409 54.117c0.884-1.494 1.668-2.801 2.266-3.769 3.28-5.307 4.351-9.384 4.351-9.384l1.416-12.14c0.795-15.717 12.156-27.45 33.231-28.083C70.747 1.375 81.995 13.108 82.79 28.825l1.415 12.14c0 0 1.071 4.077 4.352 9.384 0.596 0.968 1.38 2.274 2.266 3.769H86.76h-0.634c-3.137-4.751-7.002-12.207-13.903-12.207H49.467 26.713c-6.903 0-10.767 7.456-13.903 12.207h-0.635H8.409L8.409 54.117zM84.22 54.111h-6.021c-1.722 17.406-3.979 33.699 6.189 38.393-7.589 0.693-12.756 0.303-16.646-0.562-0.104 0.506-0.216 1.012-0.338 1.525-0.471 1.979-1.062 3.902-1.748 5.744l-8.424 0.047c0.313-0.619 0.614-1.25 0.902-1.898 3.246-7.293 3.933-14.539 2.421-19.83l-0.01-0.035-0.01-0.037c-0.443-1.572-1.466-2.812-3.512-2.939-3.005-0.186-5.284-0.201-7.552-0.193-2.075 0.008-4.134 0.023-6.883 0.193-2.045 0.127-3.068 1.367-3.506 2.924l-0.009 0.031-0.009 0.031c-1.518 5.314-0.833 12.562 2.414 19.855 0.288 0.648 0.589 1.279 0.904 1.898l-8.425-0.047c-0.687-1.842-1.276-3.766-1.748-5.744-0.134-0.562-0.257-1.123-0.368-1.678-3.959 0.971-9.272 1.449-17.288 0.715 10.168-4.693 7.913-20.986 6.192-38.393h-6.031c2.648-4.26 6.364-10.435 11.806-10.577-0.104 1.446-0.324 2.785-0.63 4.036l-0.011 0.038c-0.475 1.755-0.743 3.759-0.743 5.882 0 3.939 4.852 6.369 4.882 10.23 0.013 1.738-0.394 8.723 1.129 15.895 0.458-4.094 1.884-7.428 5.04-9.125 0 0 3.066-2.434 13.619-2.699 10.552 0.266 13.619 2.699 13.619 2.699 2.643 1.422 4.07 3.988 4.734 7.189 1.086-6.457 0.75-12.377 0.763-13.959 0.029-3.861 4.883-6.291 4.883-10.23 0-2.123-0.269-4.126-0.743-5.882l-0.013-0.038c-0.304-1.251-0.524-2.59-0.629-4.036C77.858 43.684 81.573 49.853 84.22 54.111L84.22 54.111zM49.368 45.081c-2.402 0-2.408 2.304-2.408 2.304-0.06 2.625-1.894 4.682-1.979 4.781 0 0-1.332 1.705-2.96 3.105-1.612 1.389-4.105 3.043-6.83 3.043-3.834 0-5.765-2.258-6.708-4.148-1.021-2.049-1.142-5.459-1.142-5.459-0.106-2.867 1.347-4.375 3.199-5.175h18.929 18.729c1.852 0.801 3.304 2.308 3.198 5.175 0 0-0.122 3.41-1.142 5.459-0.942 1.891-2.876 4.148-6.709 4.148-2.725 0-5.218-1.654-6.829-3.043-1.63-1.4-2.961-3.105-2.961-3.105-0.085-0.1-1.921-2.156-1.979-4.781C51.774 47.385 51.77 45.081 49.368 45.081L49.368 45.081z" fill="#797979" data-fill-palette-color="accent"></path></g></svg></g></svg></g></svg></g><defs></defs></svg><rect width="395.52" height="72.5742752174227" fill="none" stroke="none" visibility="hidden"></rect></g></svg></g></svg>